<svg width="45" height="41" viewBox="0 0 45 41" fill="none" xmlns="http://www.w3.org/2000/svg">
<path fill-rule="evenodd" clip-rule="evenodd" d="M11.5099 0H33.0202V40.9889H11.5099V0ZM4.5523 35.7336V40.9889H3.01567V35.7336C2.82666 35.7809 2.62859 35.8061 2.4247 35.8061C1.08548 35.8061 0 34.7206 0 33.3814C0 32.6357 0.335937 31.969 0.86541 31.5244C0.335937 31.0797 0 30.4117 0 29.6667C0 28.5268 0.786442 27.5708 1.84668 27.3112C2.01562 26.3953 2.81825 25.7008 3.78334 25.7008C4.74778 25.7008 5.5517 26.3953 5.71999 27.3106C6.77959 27.5701 7.56732 28.5262 7.56732 29.6667C7.56732 30.4117 7.23074 31.0797 6.70062 31.5244C7.23074 31.969 7.56732 32.6357 7.56732 33.3814C7.56732 34.7206 6.48184 35.8061 5.14197 35.8061C4.93873 35.8061 4.74131 35.7809 4.5523 35.7336ZM41.5157 35.7336V40.9889H39.9798V35.7336C39.7907 35.7809 39.592 35.8061 39.3888 35.8061C38.0489 35.8061 36.9634 34.7206 36.9634 33.3814C36.9634 32.6357 37.3 31.969 37.8295 31.5244C37.3 31.0797 36.9634 30.4117 36.9634 29.6667C36.9634 28.5268 37.7499 27.5708 38.8101 27.3112C38.9791 26.3953 39.7823 25.7008 40.7468 25.7008C41.7119 25.7008 42.5151 26.3953 42.6834 27.3106C43.7437 27.5701 44.5308 28.5262 44.5308 29.6667C44.5308 30.4117 44.1948 31.0797 43.6647 31.5244C44.1948 31.969 44.5308 32.6357 44.5308 33.3814C44.5308 34.7206 43.4453 35.8061 42.1061 35.8061C41.9022 35.8061 41.7047 35.7809 41.5157 35.7336ZM14.4667 3.1749H18.4396V7.9175H14.4667V3.1749ZM20.2786 3.1749H24.2509V7.9175H20.2786V3.1749ZM26.0905 3.1749H30.0628V7.9175H26.0905V3.1749ZM14.4667 10.8393H18.4396V15.5819H14.4667V10.8393ZM20.2786 10.8393H24.2509V15.5819H20.2786V10.8393ZM26.0905 10.8393H30.0628V15.5819H26.0905V10.8393ZM14.4667 18.5031H18.4396V23.2463H14.4667V18.5031ZM20.2786 18.5031H24.2509V23.2463H20.2786V18.5031ZM26.0905 18.5031H30.0628V23.2463H26.0905V18.5031Z" fill="url(#paint0_linear_7_79)"/>
<defs>
<linearGradient id="paint0_linear_7_79" x1="43.9436" y1="40.9889" x2="-1.72704" y2="40.9889" gradientUnits="userSpaceOnUse">
<stop stop-color="#00DC98"/>
<stop offset="1" stop-color="#01B9DD"/>
</linearGradient>
</defs>
</svg>
