<svg width="40" height="41" viewBox="0 0 40 41" fill="none" xmlns="http://www.w3.org/2000/svg">
<path d="M12.4263 17.905V15.3378C12.6963 15.2847 12.9663 15.2139 13.2275 15.1165C15.5866 14.2667 17.1446 12.0801 17.1845 9.57049C17.1535 7.26445 16.0337 5.10449 14.6925 3.28533C13.918 2.2319 13.0637 1.20503 12.0988 0.315373C11.6473 -0.100687 10.9878 -0.109539 10.5319 0.315373C9.7972 1.00143 9.13328 1.77158 8.51362 2.55944C7.28314 4.1263 6.15004 5.87464 5.67202 7.83543C5.16301 9.93786 5.61005 12.1598 7.16806 13.7178C7.99575 14.5455 9.07131 15.0943 10.2088 15.3201V17.3119C7.10167 16.5594 3.91483 16.1168 0.719137 16.0327C0.719137 16.0327 0.719137 16.0327 0.71471 16.0327C-0.183801 16.0327 0.0198024 17.1525 0.0198024 17.1525V40.0933L39.4304 40.0845C34.6236 29.4528 24.2575 21.3795 12.4263 17.9005V17.905ZM8.58886 12.0005C6.38906 9.59704 8.57116 6.04283 10.1602 4.02893C10.5275 3.56418 10.917 3.10828 11.3242 2.67009C11.8288 3.20123 12.3024 3.76336 12.7008 4.2945C13.8427 5.8171 14.9448 7.65838 14.9714 9.57491C14.9493 11.0444 14.0817 12.3944 12.7052 12.9609C12.6122 13.0008 12.5149 13.0229 12.4219 13.0495V8.02133C12.4219 6.5961 10.2088 6.5961 10.2088 8.02133V13.0362C9.59803 12.837 9.03148 12.4918 8.58444 12.0005H8.58886Z" fill="url(#paint0_linear_7_89)"/>
<path d="M39.2578 12.9874C39.2578 12.9874 39.2578 12.9874 39.2534 12.9874C32.0786 13.1955 24.9524 15.2713 18.6274 18.799C27.9711 23.0879 35.77 30.1565 39.9793 38.73V14.2489C39.9793 14.2489 40.1917 12.9874 39.2578 12.9874Z" fill="url(#paint1_linear_7_89)"/>
<defs>
<linearGradient id="paint0_linear_7_89" x1="-0.94227" y1="40.0933" x2="40.3853" y2="40.1536" gradientUnits="userSpaceOnUse">
<stop stop-color="#00DB99"/>
<stop offset="1" stop-color="#01BCD5"/>
</linearGradient>
<linearGradient id="paint1_linear_7_89" x1="18.1167" y1="38.73" x2="40.5176" y2="38.7576" gradientUnits="userSpaceOnUse">
<stop stop-color="#00DB99"/>
<stop offset="1" stop-color="#01BCD5"/>
</linearGradient>
</defs>
</svg>
