<svg width="45" height="45" viewBox="0 0 45 45" fill="none" xmlns="http://www.w3.org/2000/svg">
<path d="M8.32001 26.5212C10.1529 26.5212 11.6608 25.0137 11.6608 23.1808C11.6608 21.3471 10.1533 19.8391 8.32001 19.8391C6.48671 19.8391 4.97876 21.3471 4.97876 23.1808C4.97876 25.0137 6.48626 26.5212 8.32001 26.5212Z" fill="url(#paint0_linear_7_106)"/>
<path d="M10.9274 27.7434C10.1529 28.1912 9.25695 28.4351 8.32005 28.4351C7.3827 28.4351 6.48675 28.1912 5.71275 27.7434C3.6756 28.5165 2.25 30.4727 2.25 32.7951V33.6506C2.25 33.9359 2.4939 34.1802 2.7792 34.1802H13.6161V32.7951C13.6161 32.0616 13.7381 31.3281 13.9419 30.636C13.3713 29.291 12.2715 28.2321 10.9274 27.7434Z" fill="url(#paint1_linear_7_106)"/>
<path d="M14.5944 13.7286C16.4273 13.7286 17.9348 12.2206 17.9348 10.3878C17.9348 8.55495 16.4277 7.047 14.5944 7.047C12.7611 7.047 11.2532 8.55405 11.2532 10.3878C11.2536 12.2206 12.7607 13.7286 14.5944 13.7286Z" fill="url(#paint2_linear_7_106)"/>
<path d="M28.6487 13.7286C30.482 13.7286 31.9899 12.2206 31.9899 10.3878C31.9899 8.55495 30.4824 7.047 28.6487 7.047C26.8158 7.047 25.3079 8.55405 25.3079 10.3878C25.3083 12.2206 26.8158 13.7286 28.6487 13.7286Z" fill="url(#paint3_linear_7_106)"/>
<path d="M17.4456 26.3984C16.7526 25.4615 16.3458 24.3612 16.3458 23.1809C16.3458 20.736 18.0162 18.6989 20.2977 18.1287C19.7676 16.7022 18.6273 15.5205 17.1607 14.9913C16.3867 15.4391 15.4903 15.6843 14.5534 15.6843C13.6165 15.6843 12.7206 15.4391 11.9461 14.9913C10.5606 15.5205 9.46122 16.6208 8.89062 18.0059C11.4979 18.2912 13.5346 20.5313 13.5346 23.2209C13.5346 24.4017 13.1274 25.502 12.4753 26.3984C13.4532 26.9289 14.3086 27.7025 14.9602 28.598C15.6127 27.702 16.4677 26.928 17.4456 26.3984Z" fill="url(#paint4_linear_7_106)"/>
<path d="M18.2605 23.1808C18.2605 25.0137 19.7675 26.5212 21.6008 26.5212C23.4341 26.5212 24.9416 25.0137 24.9416 23.1808C24.9416 21.3471 23.4341 19.8391 21.6008 19.8391C19.768 19.8805 18.2605 21.3471 18.2605 23.1808Z" fill="url(#paint5_linear_7_106)"/>
<path d="M30.505 26.0199H31.6696V25.9952C31.6696 24.4229 32.9013 23.1921 34.474 23.1921H35.1598C35.172 22.9604 35.1787 22.7246 35.1787 22.487C35.1787 20.5956 34.7728 18.8784 34.1127 17.6175C33.5106 16.3958 32.4814 15.435 31.2156 14.9508C30.4411 15.399 29.5452 15.6429 28.6078 15.6429C27.6709 15.6429 26.775 15.399 26.001 14.9508C24.5749 15.521 23.4342 16.6622 22.9045 18.0878C25.1451 18.6588 26.8155 20.7365 26.8155 23.1404C26.8155 24.3212 26.4082 25.4214 25.7562 26.3178C26.5693 26.7579 27.2974 27.3677 27.8937 28.0755C27.9468 27.6237 28.1295 27.2111 28.4044 26.8763C28.8324 26.3538 29.4808 26.0208 30.2067 26.0208H30.505V26.0199Z" fill="url(#paint6_linear_7_106)"/>
<path d="M24.2084 27.7434C23.4339 28.1912 22.538 28.4351 21.6011 28.4351C20.6642 28.4351 19.7678 28.1912 18.9938 27.7434C16.9571 28.5165 15.531 30.4722 15.531 32.7951V34.1802H27.6711V32.7951C27.6716 30.4727 26.2455 28.5165 24.2084 27.7434Z" fill="url(#paint7_linear_7_106)"/>
<path d="M41.5841 27.184H38.9588V25.9951C38.9588 25.0749 38.2375 24.3553 37.3181 24.3553H35.0425H34.4746C33.5552 24.3553 32.8339 25.0749 32.8339 25.9951V27.184H30.2081C29.6596 27.184 29.1979 27.5652 29.075 28.0773C29.053 28.1646 29.0417 28.2555 29.0417 28.35V36.7866C29.0417 37.4301 29.5651 37.9525 30.2077 37.9525H41.5837C42.2272 37.9525 42.7496 37.4301 42.7496 36.7866V28.3504C42.7501 27.7069 42.2272 27.184 41.5841 27.184ZM37.5737 27.184H34.2181V27.1476V25.9951C34.2181 25.8309 34.309 25.74 34.4741 25.74H34.7459H37.3177C37.4828 25.74 37.5733 25.8309 37.5733 25.9951L37.5737 27.184Z" fill="url(#paint8_linear_7_106)"/>
<defs>
<linearGradient id="paint0_linear_7_106" x1="4.81908" y1="26.5211" x2="11.8226" y2="26.5315" gradientUnits="userSpaceOnUse">
<stop stop-color="#00DB99"/>
<stop offset="1" stop-color="#01BCD5"/>
</linearGradient>
<linearGradient id="paint1_linear_7_106" x1="1.9706" y1="34.1802" x2="14.225" y2="34.2132" gradientUnits="userSpaceOnUse">
<stop stop-color="#00DB99"/>
<stop offset="1" stop-color="#01BCD5"/>
</linearGradient>
<linearGradient id="paint2_linear_7_106" x1="11.0935" y1="13.7286" x2="18.0966" y2="13.739" gradientUnits="userSpaceOnUse">
<stop stop-color="#00DB99"/>
<stop offset="1" stop-color="#01BCD5"/>
</linearGradient>
<linearGradient id="paint3_linear_7_106" x1="25.1482" y1="13.7286" x2="32.1517" y2="13.739" gradientUnits="userSpaceOnUse">
<stop stop-color="#00DB99"/>
<stop offset="1" stop-color="#01BCD5"/>
</linearGradient>
<linearGradient id="paint4_linear_7_106" x1="8.61803" y1="28.598" x2="20.5739" y2="28.6128" gradientUnits="userSpaceOnUse">
<stop stop-color="#00DB99"/>
<stop offset="1" stop-color="#01BCD5"/>
</linearGradient>
<linearGradient id="paint5_linear_7_106" x1="18.1008" y1="26.5211" x2="25.1034" y2="26.5315" gradientUnits="userSpaceOnUse">
<stop stop-color="#00DB99"/>
<stop offset="1" stop-color="#01BCD5"/>
</linearGradient>
<linearGradient id="paint6_linear_7_106" x1="22.6112" y1="28.0755" x2="35.476" y2="28.0933" gradientUnits="userSpaceOnUse">
<stop stop-color="#00DB99"/>
<stop offset="1" stop-color="#01BCD5"/>
</linearGradient>
<linearGradient id="paint7_linear_7_106" x1="15.2409" y1="34.1802" x2="27.965" y2="34.2158" gradientUnits="userSpaceOnUse">
<stop stop-color="#00DB99"/>
<stop offset="1" stop-color="#01BCD5"/>
</linearGradient>
<linearGradient id="paint8_linear_7_106" x1="28.7142" y1="37.9525" x2="43.0816" y2="37.974" gradientUnits="userSpaceOnUse">
<stop stop-color="#00DB99"/>
<stop offset="1" stop-color="#01BCD5"/>
</linearGradient>
</defs>
</svg>
