<svg width="31" height="42" viewBox="0 0 31 42" fill="none" xmlns="http://www.w3.org/2000/svg">
<path d="M22.5696 0.214852L30.7545 8.39967H22.5696V0.214852ZM31 9.9599V40.5865C31 40.79 30.9192 40.9851 30.7753 41.129C30.6314 41.2729 30.4362 41.3538 30.2327 41.3538H0.767327C0.563819 41.3538 0.368646 41.2729 0.224744 41.129C0.0808425 40.9851 0 40.79 0 40.5865V0.767327C0 0.563819 0.0808425 0.368646 0.224744 0.224745C0.368646 0.080843 0.563819 0 0.767327 0H21.035V9.20792C21.035 9.41143 21.1158 9.6066 21.2597 9.7505C21.4036 9.8944 21.5988 9.97525 21.8023 9.97525L31 9.9599ZM12.0726 15.7353C12.0726 16.6919 11.0495 17.4695 9.84736 17.4695C8.64521 17.4695 7.62723 16.6919 7.62723 15.7353C7.62723 15.5318 7.54638 15.3366 7.40248 15.1927C7.25858 15.0488 7.06341 14.968 6.8599 14.968C6.65639 14.968 6.46122 15.0488 6.31732 15.1927C6.17342 15.3366 6.09257 15.5318 6.09257 15.7353C6.09257 17.3109 7.37657 18.6256 9.08003 18.9376V20.2267C9.08003 20.4302 9.16088 20.6254 9.30478 20.7693C9.44868 20.9132 9.64385 20.9941 9.84736 20.9941C10.0509 20.9941 10.246 20.9132 10.3899 20.7693C10.5338 20.6254 10.6147 20.4302 10.6147 20.2267V18.9376C12.3233 18.6256 13.6073 17.3109 13.6073 15.7353C13.6073 13.9295 11.9191 12.4614 9.84736 12.4614C8.62475 12.4614 7.62723 11.6838 7.62723 10.7272C7.62723 9.77063 8.65033 8.99307 9.84736 8.99307C11.0444 8.99307 12.0726 9.77063 12.0726 10.7272C12.0726 10.9307 12.1534 11.1259 12.2973 11.2698C12.4413 11.4137 12.6364 11.4946 12.8399 11.4946C13.0434 11.4946 13.2386 11.4137 13.3825 11.2698C13.5264 11.1259 13.6073 10.9307 13.6073 10.7272C13.6073 9.15165 12.3233 7.83696 10.6147 7.52492V6.55297C10.6147 6.34946 10.5338 6.15429 10.3899 6.01039C10.246 5.86649 10.0509 5.78564 9.84736 5.78564C9.64385 5.78564 9.44868 5.86649 9.30478 6.01039C9.16088 6.15429 9.08003 6.34946 9.08003 6.55297V7.52492C7.37657 7.83696 6.09257 9.15165 6.09257 10.7272C6.09257 12.533 7.77558 13.996 9.84736 13.996C11.0597 13.996 12.0573 14.7787 12.0573 15.7353H12.0726ZM23.7871 26.0584C23.6273 25.9327 23.4243 25.875 23.2222 25.898C23.0201 25.921 22.8353 26.0227 22.7078 26.1812L16.9375 33.4196L13.6277 27.3271C13.5702 27.2218 13.4889 27.1314 13.3903 27.0631C13.2918 26.9947 13.1786 26.9502 13.0599 26.9332C12.9411 26.9157 12.8199 26.9265 12.7062 26.9647C12.5924 27.0029 12.4892 27.0675 12.4051 27.1531L7.14637 32.4426C7.07135 32.5132 7.01132 32.5982 6.96985 32.6925C6.92839 32.7868 6.90634 32.8885 6.90503 32.9915C6.90371 33.0945 6.92316 33.1968 6.9622 33.2921C7.00124 33.3874 7.05908 33.4739 7.13228 33.5465C7.20547 33.619 7.29251 33.676 7.38822 33.7141C7.48392 33.7523 7.58633 33.7707 7.68933 33.7685C7.79233 33.7662 7.89381 33.7432 7.98773 33.7008C8.08165 33.6585 8.16607 33.5976 8.23597 33.5219L12.7683 28.9538L16.1394 35.1487C16.1992 35.261 16.2863 35.3564 16.3927 35.4261C16.4991 35.4959 16.6214 35.5377 16.7482 35.5477H16.8147C16.9301 35.5479 17.044 35.5218 17.1477 35.4712C17.2514 35.4207 17.3423 35.3471 17.4132 35.2561L23.9099 27.1173C24.0306 26.9593 24.0853 26.7606 24.0624 26.5631C24.0395 26.3655 23.9408 26.1846 23.7871 26.0584ZM24.9228 20.2267C24.9228 20.0232 24.8419 19.8281 24.698 19.6842C24.5541 19.5402 24.359 19.4594 24.1554 19.4594H14.9475C14.744 19.4594 14.5488 19.5402 14.4049 19.6842C14.261 19.8281 14.1802 20.0232 14.1802 20.2267C14.1802 20.4302 14.261 20.6254 14.4049 20.7693C14.5488 20.9132 14.744 20.9941 14.9475 20.9941H24.1554C24.2562 20.9941 24.356 20.9742 24.4491 20.9356C24.5422 20.8971 24.6268 20.8406 24.698 20.7693C24.7693 20.6981 24.8258 20.6135 24.8644 20.5204C24.9029 20.4273 24.9228 20.3275 24.9228 20.2267Z" fill="url(#paint0_linear_7_91)"/>
<defs>
<linearGradient id="paint0_linear_7_91" x1="-0.740809" y1="41.3537" x2="31.7508" y2="41.3898" gradientUnits="userSpaceOnUse">
<stop stop-color="#00DB99"/>
<stop offset="1" stop-color="#01BCD5"/>
</linearGradient>
</defs>
</svg>
