<svg width="46" height="38" viewBox="0 0 46 38" fill="none" xmlns="http://www.w3.org/2000/svg">
<path d="M27.2605 4.82982V18.1435L36.1416 14.9114C36.3816 14.8242 36.6473 14.9486 36.7344 15.1886L37.1541 16.3419L37.3613 16.1831C37.5481 16.0351 37.7262 15.8795 37.8922 15.7201C38.0226 15.5957 38.2198 15.5535 38.3957 15.6291L40.7495 16.6493L42.2426 14.0626L40.1841 12.5362C40.04 12.4288 39.9655 12.2414 40.0104 12.0562C40.0805 11.768 40.1359 11.4656 40.1737 11.1532C40.2093 10.8563 40.2279 10.55 40.2279 10.2377C40.2279 9.92648 40.2093 9.61965 40.1731 9.32268C40.1364 9.01147 40.0811 8.71012 40.0098 8.42027C39.9671 8.2444 40.0296 8.05208 40.1835 7.93811L42.2426 6.41109L40.7495 3.82441L38.4116 4.83695C38.2428 4.91749 38.0341 4.89064 37.8916 4.75311C37.4522 4.33232 36.9585 3.96139 36.4254 3.65291C35.9098 3.35485 35.3559 3.11487 34.7762 2.94392C34.5883 2.90282 34.4376 2.74557 34.4146 2.54394L34.122 0H31.1365L30.845 2.54394C30.823 2.72311 30.6976 2.882 30.5135 2.93515C29.9223 3.10665 29.3579 3.34992 28.8325 3.65346C28.2999 3.95974 27.8079 4.33068 27.3668 4.75311C27.3345 4.78435 27.2983 4.8101 27.2605 4.82982ZM32.629 5.62046C33.9017 5.62046 35.0562 6.13768 35.8923 6.97379C36.729 7.80826 37.2456 8.96325 37.2456 10.2377C37.2456 11.5121 36.729 12.6671 35.8781 13.5164C35.0299 14.3487 33.8881 14.8549 32.629 14.8549C31.3545 14.8549 30.1995 14.3371 29.3651 13.5027C28.5295 12.6671 28.0128 11.5121 28.0128 10.2377C28.0128 8.96325 28.5295 7.80826 29.3799 6.959C30.2286 6.12618 31.371 5.62046 32.629 5.62046ZM35.237 7.628C34.5713 6.96119 33.6486 6.54861 32.629 6.54861C31.6219 6.54861 30.7096 6.95133 30.0335 7.61594C29.3541 8.29645 28.941 9.21912 28.941 10.2377C28.941 11.2563 29.3541 12.1789 30.0215 12.8463C30.6883 13.5131 31.6109 13.9268 32.629 13.9268C33.6355 13.9268 34.5477 13.5235 35.225 12.8594C35.9044 12.1789 36.3175 11.2563 36.3175 10.2377C36.3175 9.21912 35.9044 8.29645 35.237 7.628ZM27.2605 19.1286V21.1203L37.2659 19.356L36.0227 15.9398L27.2605 19.1286ZM27.2605 22.061V23.1629H41.9527L41.3215 19.5817L37.9618 20.1735L27.2605 22.061ZM34.985 28.1269C35.0069 28.3817 34.8179 28.6069 34.5631 28.6288C34.3083 28.6507 34.0831 28.4617 34.0612 28.2069C34.0393 27.9538 33.9264 27.7275 33.7577 27.562C33.5873 27.3955 33.3588 27.287 33.1062 27.2711C32.8525 27.2547 32.6114 27.3319 32.4213 27.4749C32.2323 27.6185 32.0909 27.8289 32.0378 28.0754C31.9841 28.3236 32.0295 28.5757 32.2016 28.8096C32.3895 29.065 32.7199 29.3104 33.2191 29.5263C33.8793 29.8123 34.3357 30.163 34.6173 30.5449C34.9609 31.0117 35.0507 31.5185 34.9411 32.022C34.8381 32.4921 34.5697 32.8921 34.2058 33.1655C33.9976 33.3222 33.7577 33.4378 33.5001 33.5014V33.9414C33.5001 34.1972 33.2919 34.4054 33.0361 34.4054C32.7802 34.4054 32.572 34.1972 32.572 33.9414V33.5025C32.2257 33.4181 31.915 33.2422 31.669 33.0017C31.3441 32.6828 31.1288 32.2527 31.0877 31.7738C31.0658 31.519 31.2548 31.2938 31.5096 31.2719C31.7644 31.25 31.9895 31.439 32.0115 31.6938C32.0334 31.9459 32.1457 32.1727 32.3139 32.3382C32.4849 32.5053 32.7139 32.6138 32.9665 32.6297C33.2201 32.6461 33.4618 32.5683 33.6514 32.4258C33.8404 32.2839 33.9807 32.0735 34.0349 31.8259C34.0891 31.5771 34.0431 31.3251 33.8711 31.0917C33.6826 30.8363 33.3522 30.5903 32.8531 30.3745C32.1923 30.0885 31.7364 29.7389 31.4553 29.3564C31.1118 28.8891 31.0219 28.3834 31.1315 27.8793C31.2334 27.4081 31.5025 27.0081 31.8641 26.7358C32.0739 26.5791 32.3139 26.4635 32.572 26.3999V25.9594C32.572 25.7035 32.7802 25.4953 33.0361 25.4953C33.2919 25.4953 33.5001 25.7035 33.5001 25.9594V26.3983C33.847 26.4827 34.1576 26.6591 34.4031 26.8991C34.7285 27.2169 34.9439 27.6481 34.985 28.1269ZM27.2605 24.091V35.8097H45.0353V24.091H27.2605ZM4.92063 24.7354C4.66475 24.7354 4.45655 24.5272 4.45655 24.2713C4.45655 24.0154 4.66475 23.8072 4.92063 23.8072H18.2211C18.477 23.8072 18.6852 24.0154 18.6852 24.2713C18.6852 24.5272 18.477 24.7354 18.2211 24.7354H4.92063ZM4.92063 21.5909C4.66475 21.5909 4.45655 21.3827 4.45655 21.1268C4.45655 20.871 4.66475 20.6628 4.92063 20.6628H22.377C22.6329 20.6628 22.8411 20.871 22.8411 21.1268C22.8411 21.3827 22.6329 21.5909 22.377 21.5909H4.92063ZM4.92063 18.4476C4.66475 18.4476 4.45655 18.2394 4.45655 17.9835C4.45655 17.7276 4.66475 17.5194 4.92063 17.5194H22.377C22.6329 17.5194 22.8411 17.7276 22.8411 17.9835C22.8411 18.2394 22.6329 18.4476 22.377 18.4476H4.92063ZM4.92063 15.3037C4.66475 15.3037 4.45655 15.0955 4.45655 14.8396C4.45655 14.5837 4.66475 14.3755 4.92063 14.3755H22.377C22.6329 14.3755 22.8411 14.5837 22.8411 14.8396C22.8411 15.0955 22.6329 15.3037 22.377 15.3037H4.92063ZM4.92063 12.1598C4.66475 12.1598 4.45655 11.9516 4.45655 11.6957C4.45655 11.4398 4.66475 11.2316 4.92063 11.2316H22.377C22.6329 11.2316 22.8411 11.4398 22.8411 11.6957C22.8411 11.9516 22.6329 12.1598 22.377 12.1598H4.92063ZM8.55217 8.2833C8.2963 8.2833 8.08809 8.07509 8.08809 7.81922C8.08809 7.56334 8.2963 7.35514 8.55217 7.35514H18.7455C19.0014 7.35514 19.2096 7.56334 19.2096 7.81922C19.2096 8.07509 19.0014 8.2833 18.7455 8.2833H8.55217ZM7.83496 29.7679C7.61634 29.8994 7.33088 29.8287 7.19938 29.6101C7.06788 29.3915 7.13856 29.106 7.35718 28.9746C9.38773 27.7527 10.8216 27.1966 11.655 27.3067C12.4516 27.4119 12.8018 27.9264 12.707 28.8474C13.3694 28.517 14.1436 28.3516 15.029 28.3516C16.3791 28.3516 17.9965 28.7428 19.8797 29.523C20.1153 29.6205 20.227 29.8923 20.1295 30.1279C20.032 30.3635 19.7602 30.4753 19.5246 30.3777C17.7598 29.6468 16.2602 29.2797 15.029 29.2797C13.8735 29.2797 12.9628 29.6085 12.2982 30.2643C12.1766 30.3964 11.9837 30.4506 11.804 30.3871C11.5629 30.3021 11.4364 30.0375 11.5213 29.7964C11.878 28.7948 11.8835 28.2699 11.5355 28.2239C10.9159 28.1417 9.68141 28.6568 7.83496 29.7679ZM0.964722 37.8901H26.3324V3.37951H0.964722V37.8901Z" fill="url(#paint0_linear_7_100)"/>
<defs>
<linearGradient id="paint0_linear_7_100" x1="-0.0884347" y1="37.8901" x2="46.1025" y2="37.9698" gradientUnits="userSpaceOnUse">
<stop stop-color="#00DB99"/>
<stop offset="1" stop-color="#01BCD5"/>
</linearGradient>
</defs>
</svg>
